<mxfile host="app.diagrams.net" modified="2022-01-07T11:33:58.958Z" agent="5.0 (Macintosh; Intel Mac OS X 10_15_7) AppleWebKit/537.36 (KHTML, like Gecko) Chrome/96.0.4664.110 Safari/537.36" etag="rxAG0SV11yolLE98udSE" version="16.2.2" type="github">
  <diagram id="QJjx0-fPxzvcmYibJWj1" name="Page-1">
    <mxGraphModel dx="751" dy="390" grid="1" gridSize="10" guides="1" tooltips="1" connect="1" arrows="1" fold="1" page="1" pageScale="1" pageWidth="827" pageHeight="583" background="none" math="1" shadow="0">
      <root>
        <mxCell id="0" />
        <mxCell id="1" parent="0" />
        <mxCell id="D3brpiPSZw9Llv10A2Zf-60" value="" style="shape=cube;whiteSpace=wrap;html=1;boundedLbl=1;backgroundOutline=1;darkOpacity=0.05;darkOpacity2=0.1;size=7;direction=east;flipH=1;fillColor=#ffe6cc;strokeColor=#d79b00;" parent="1" vertex="1">
          <mxGeometry x="379.99" y="180.84" width="9.77" height="50" as="geometry" />
        </mxCell>
        <mxCell id="XhSUJVH7mqsBgUz_nKbS-15" value="" style="endArrow=classic;html=1;rounded=0;exitX=0.059;exitY=0.542;exitDx=0;exitDy=0;exitPerimeter=0;" parent="1" edge="1">
          <mxGeometry width="50" height="50" relative="1" as="geometry">
            <mxPoint x="285.29357000000005" y="220.21000000000004" as="sourcePoint" />
            <mxPoint x="356.5" y="207.96" as="targetPoint" />
          </mxGeometry>
        </mxCell>
        <mxCell id="XhSUJVH7mqsBgUz_nKbS-16" value="" style="endArrow=classic;html=1;rounded=0;exitX=0.059;exitY=0.542;exitDx=0;exitDy=0;exitPerimeter=0;" parent="1" edge="1">
          <mxGeometry width="50" height="50" relative="1" as="geometry">
            <mxPoint x="306.27357000000006" y="198.72" as="sourcePoint" />
            <mxPoint x="357.5" y="207.96" as="targetPoint" />
          </mxGeometry>
        </mxCell>
        <mxCell id="4f-DMQIj-ya-iA7LCkDa-26" value="" style="shape=cube;whiteSpace=wrap;html=1;boundedLbl=1;backgroundOutline=1;darkOpacity=0.05;darkOpacity2=0.1;size=7;direction=east;flipH=1;fillColor=#E6FFCC;strokeColor=#7C8772;" parent="1" vertex="1">
          <mxGeometry x="246.32999999999998" y="177.96" width="9.77" height="50" as="geometry" />
        </mxCell>
        <mxCell id="4f-DMQIj-ya-iA7LCkDa-52" value="Linear Layer" style="text;html=1;strokeColor=none;fillColor=none;align=left;verticalAlign=middle;whiteSpace=wrap;rounded=0;fontStyle=1" parent="1" vertex="1">
          <mxGeometry x="517" y="238.72000000000003" width="138" height="23.88" as="geometry" />
        </mxCell>
        <mxCell id="q16qMvtAuAjUv3j_tnUs-6" value="" style="shape=cube;whiteSpace=wrap;html=1;boundedLbl=1;backgroundOutline=1;darkOpacity=0.05;darkOpacity2=0.1;size=7;direction=east;flipH=1;fillColor=#ffe6cc;strokeColor=#d79b00;" parent="1" vertex="1">
          <mxGeometry x="480.00000000000006" y="241.65999999999997" width="30" height="20" as="geometry" />
        </mxCell>
        <mxCell id="D3brpiPSZw9Llv10A2Zf-5" value="" style="shape=cube;whiteSpace=wrap;html=1;boundedLbl=1;backgroundOutline=1;darkOpacity=0.05;darkOpacity2=0.1;size=7;direction=east;flipH=1;fillColor=#e1d5e7;strokeColor=#9673a6;" parent="1" vertex="1">
          <mxGeometry x="480.65000000000003" y="154.82000000000008" width="30" height="20" as="geometry" />
        </mxCell>
        <mxCell id="D3brpiPSZw9Llv10A2Zf-6" value="Conv3D + GELU" style="text;html=1;strokeColor=none;fillColor=none;align=left;verticalAlign=middle;whiteSpace=wrap;rounded=0;fontStyle=1" parent="1" vertex="1">
          <mxGeometry x="516.6500000000001" y="151.96" width="179.29" height="23.88" as="geometry" />
        </mxCell>
        <mxCell id="D3brpiPSZw9Llv10A2Zf-13" value="" style="shape=cube;whiteSpace=wrap;html=1;boundedLbl=1;backgroundOutline=1;darkOpacity=0.05;darkOpacity2=0.1;size=10;direction=east;flipH=1;fillColor=#e1d5e7;strokeColor=#9673a6;" parent="1" vertex="1">
          <mxGeometry x="205.06" y="177.96" width="25" height="50" as="geometry" />
        </mxCell>
        <mxCell id="D3brpiPSZw9Llv10A2Zf-15" value="" style="endArrow=classic;html=1;rounded=0;jumpStyle=sharp;dashed=1;dashPattern=1 1;" parent="1" edge="1">
          <mxGeometry width="50" height="50" relative="1" as="geometry">
            <mxPoint x="170.5" y="208.96" as="sourcePoint" />
            <mxPoint x="198.82" y="208.45999999999998" as="targetPoint" />
          </mxGeometry>
        </mxCell>
        <mxCell id="D3brpiPSZw9Llv10A2Zf-17" value="" style="shape=cube;whiteSpace=wrap;html=1;boundedLbl=1;backgroundOutline=1;darkOpacity=0.05;darkOpacity2=0.1;size=7;direction=east;flipH=1;" parent="1" vertex="1">
          <mxGeometry x="355.25" y="190.84" width="9.77" height="30" as="geometry" />
        </mxCell>
        <mxCell id="D3brpiPSZw9Llv10A2Zf-18" value="72 x 16&lt;sup&gt;3&lt;/sup&gt;" style="text;html=1;strokeColor=none;fillColor=none;align=center;verticalAlign=middle;whiteSpace=wrap;rounded=0;" parent="1" vertex="1">
          <mxGeometry x="170" y="227.96" width="76.33" height="23" as="geometry" />
        </mxCell>
        <mxCell id="D3brpiPSZw9Llv10A2Zf-37" value="" style="shape=cube;whiteSpace=wrap;html=1;boundedLbl=1;backgroundOutline=1;darkOpacity=0.05;darkOpacity2=0.1;size=7;direction=east;flipH=1;" parent="1" vertex="1">
          <mxGeometry x="480" y="212.82000000000008" width="30" height="20" as="geometry" />
        </mxCell>
        <mxCell id="D3brpiPSZw9Llv10A2Zf-38" value="Latent space" style="text;html=1;strokeColor=none;fillColor=none;align=left;verticalAlign=middle;whiteSpace=wrap;rounded=0;fontStyle=1" parent="1" vertex="1">
          <mxGeometry x="517" y="209.88000000000002" width="179.29" height="23.88" as="geometry" />
        </mxCell>
        <mxCell id="D3brpiPSZw9Llv10A2Zf-39" value="" style="endArrow=classic;html=1;rounded=0;" parent="1" edge="1">
          <mxGeometry width="50" height="50" relative="1" as="geometry">
            <mxPoint x="224.81999999999994" y="208.46" as="sourcePoint" />
            <mxPoint x="244.5" y="207.96" as="targetPoint" />
          </mxGeometry>
        </mxCell>
        <mxCell id="D3brpiPSZw9Llv10A2Zf-40" value="" style="endArrow=classic;html=1;rounded=0;entryX=0;entryY=0;entryDx=9.54;entryDy=29.689999999999998;entryPerimeter=0;exitX=0.059;exitY=0.542;exitDx=0;exitDy=0;exitPerimeter=0;" parent="1" source="4f-DMQIj-ya-iA7LCkDa-26" target="XhSUJVH7mqsBgUz_nKbS-6" edge="1">
          <mxGeometry width="50" height="50" relative="1" as="geometry">
            <mxPoint x="253.78999999999996" y="205.59" as="sourcePoint" />
            <mxPoint x="266.4999999999998" y="229.46" as="targetPoint" />
          </mxGeometry>
        </mxCell>
        <mxCell id="D3brpiPSZw9Llv10A2Zf-41" value="" style="endArrow=classic;html=1;rounded=0;" parent="1" edge="1">
          <mxGeometry width="50" height="50" relative="1" as="geometry">
            <mxPoint x="362.48" y="208.26000000000002" as="sourcePoint" />
            <mxPoint x="375.9000000000001" y="208.66000000000003" as="targetPoint" />
          </mxGeometry>
        </mxCell>
        <mxCell id="D3brpiPSZw9Llv10A2Zf-42" value="" style="endArrow=classic;html=1;rounded=0;" parent="1" edge="1">
          <mxGeometry width="50" height="50" relative="1" as="geometry">
            <mxPoint x="387.36000000000007" y="207.86" as="sourcePoint" />
            <mxPoint x="407.36000000000007" y="207.86" as="targetPoint" />
          </mxGeometry>
        </mxCell>
        <mxCell id="D3brpiPSZw9Llv10A2Zf-43" value="" style="endArrow=classic;html=1;rounded=0;dashed=1;dashPattern=1 2;" parent="1" edge="1">
          <mxGeometry width="50" height="50" relative="1" as="geometry">
            <mxPoint x="440.54999999999984" y="209.34" as="sourcePoint" />
            <mxPoint x="464.05999999999983" y="208.84" as="targetPoint" />
          </mxGeometry>
        </mxCell>
        <mxCell id="D3brpiPSZw9Llv10A2Zf-49" value="72 x 16&lt;sup&gt;3&lt;/sup&gt;" style="text;html=1;strokeColor=none;fillColor=none;align=center;verticalAlign=middle;whiteSpace=wrap;rounded=0;" parent="1" vertex="1">
          <mxGeometry x="390.57" y="230.84" width="68.7" height="20.25" as="geometry" />
        </mxCell>
        <mxCell id="D3brpiPSZw9Llv10A2Zf-58" value="" style="shape=cube;whiteSpace=wrap;html=1;boundedLbl=1;backgroundOutline=1;darkOpacity=0.05;darkOpacity2=0.1;size=7;direction=east;flipH=1;fillColor=#ffe6cc;strokeColor=#d79b00;" parent="1" vertex="1">
          <mxGeometry x="296.5" y="170.34" width="9.77" height="50" as="geometry" />
        </mxCell>
        <mxCell id="D3brpiPSZw9Llv10A2Zf-64" value="" style="shape=cube;whiteSpace=wrap;html=1;boundedLbl=1;backgroundOutline=1;darkOpacity=0.05;darkOpacity2=0.1;size=10;direction=east;flipH=1;fillColor=#FFCCE6;strokeColor=#9C7C8C;" parent="1" vertex="1">
          <mxGeometry x="412.4200000000001" y="179.09" width="25" height="50" as="geometry" />
        </mxCell>
        <mxCell id="D3brpiPSZw9Llv10A2Zf-65" value="Flatten layer" style="text;html=1;strokeColor=none;fillColor=none;align=left;verticalAlign=middle;whiteSpace=wrap;rounded=0;fontStyle=1" parent="1" vertex="1">
          <mxGeometry x="516.6500000000001" y="179.96000000000006" width="138" height="23.88" as="geometry" />
        </mxCell>
        <mxCell id="D3brpiPSZw9Llv10A2Zf-66" value="" style="shape=cube;whiteSpace=wrap;html=1;boundedLbl=1;backgroundOutline=1;darkOpacity=0.05;darkOpacity2=0.1;size=7;direction=east;flipH=1;fillColor=#E6FFCC;strokeColor=#7C8772;" parent="1" vertex="1">
          <mxGeometry x="480.65000000000003" y="182.9" width="30" height="20" as="geometry" />
        </mxCell>
        <mxCell id="D3brpiPSZw9Llv10A2Zf-67" value="Reshape to 3D" style="text;html=1;strokeColor=none;fillColor=none;align=left;verticalAlign=middle;whiteSpace=wrap;rounded=0;fontStyle=1" parent="1" vertex="1">
          <mxGeometry x="517" y="268.8" width="138" height="23.88" as="geometry" />
        </mxCell>
        <mxCell id="D3brpiPSZw9Llv10A2Zf-68" value="" style="shape=cube;whiteSpace=wrap;html=1;boundedLbl=1;backgroundOutline=1;darkOpacity=0.05;darkOpacity2=0.1;size=7;direction=east;flipH=1;fillColor=#FFCCE6;strokeColor=#9C7C8C;" parent="1" vertex="1">
          <mxGeometry x="480.00000000000006" y="270.73999999999995" width="30" height="20" as="geometry" />
        </mxCell>
        <mxCell id="XhSUJVH7mqsBgUz_nKbS-5" value="" style="endArrow=classic;html=1;rounded=0;entryX=0;entryY=0;entryDx=9.77;entryDy=28.5;entryPerimeter=0;exitX=0.087;exitY=0.545;exitDx=0;exitDy=0;exitPerimeter=0;" parent="1" source="4f-DMQIj-ya-iA7LCkDa-26" target="D3brpiPSZw9Llv10A2Zf-58" edge="1">
          <mxGeometry width="50" height="50" relative="1" as="geometry">
            <mxPoint x="251.5" y="198.96" as="sourcePoint" />
            <mxPoint x="279.60999999999996" y="218.96" as="targetPoint" />
          </mxGeometry>
        </mxCell>
        <mxCell id="XhSUJVH7mqsBgUz_nKbS-6" value="" style="shape=cube;whiteSpace=wrap;html=1;boundedLbl=1;backgroundOutline=1;darkOpacity=0.05;darkOpacity2=0.1;size=7;direction=east;flipH=1;fillColor=#ffe6cc;strokeColor=#d79b00;" parent="1" vertex="1">
          <mxGeometry x="277.5" y="190.34" width="9.54" height="52.38" as="geometry" />
        </mxCell>
        <mxCell id="XhSUJVH7mqsBgUz_nKbS-10" value="&amp;nbsp;\(\mu\)" style="text;html=1;strokeColor=none;fillColor=none;align=center;verticalAlign=middle;whiteSpace=wrap;rounded=0;" parent="1" vertex="1">
          <mxGeometry x="296.29" y="147.22" width="35.11" height="25.37" as="geometry" />
        </mxCell>
        <mxCell id="XhSUJVH7mqsBgUz_nKbS-13" value="&amp;nbsp;\(\log{\sigma^2}\)" style="text;html=1;strokeColor=none;fillColor=none;align=center;verticalAlign=middle;whiteSpace=wrap;rounded=0;" parent="1" vertex="1">
          <mxGeometry x="261.39" y="227.96" width="35.11" height="25.37" as="geometry" />
        </mxCell>
        <mxCell id="XhSUJVH7mqsBgUz_nKbS-18" style="rounded=0;jumpStyle=none;orthogonalLoop=1;jettySize=auto;html=1;dashed=1;dashPattern=1 1;strokeColor=none;" parent="1" source="XhSUJVH7mqsBgUz_nKbS-17" edge="1">
          <mxGeometry relative="1" as="geometry">
            <mxPoint x="336.48" y="217.96" as="targetPoint" />
          </mxGeometry>
        </mxCell>
        <mxCell id="XhSUJVH7mqsBgUz_nKbS-17" value="reparameterize" style="text;html=1;strokeColor=none;fillColor=none;align=center;verticalAlign=middle;whiteSpace=wrap;rounded=0;" parent="1" vertex="1">
          <mxGeometry x="306.48" y="259.96" width="60" height="30" as="geometry" />
        </mxCell>
        <mxCell id="XhSUJVH7mqsBgUz_nKbS-19" value="" style="endArrow=none;dashed=1;html=1;dashPattern=1 3;strokeWidth=2;rounded=0;jumpStyle=none;exitX=0.331;exitY=0.01;exitDx=0;exitDy=0;exitPerimeter=0;" parent="1" source="XhSUJVH7mqsBgUz_nKbS-17" edge="1">
          <mxGeometry width="50" height="50" relative="1" as="geometry">
            <mxPoint x="306.5" y="277.96" as="sourcePoint" />
            <mxPoint x="326.5" y="217.96" as="targetPoint" />
            <Array as="points">
              <mxPoint x="326.5" y="227.96" />
            </Array>
          </mxGeometry>
        </mxCell>
      </root>
    </mxGraphModel>
  </diagram>
</mxfile>
